# xmcd CD database file
#
# Track frame offsets:
#	150
#	18037
#	38200
#	55212
#	74112
#	88012
#	102800
#	115675
#	133612
#	148737
#	164837
#	181737
#	197212
#	210987
#	223937
#	237300
#
# Disc length: 3354 seconds
#
# Revision: 3
# Processed by: cddbd v1.5.2PL0 Copyright (c) Steve Scherf et al.
# Submitted via: CDex 1.51
#
DISCID=ed0d1810
DTITLE=Various Artist - MediaMarkt - The 70s Vol.2 CD2
DYEAR=2002
DGENRE=Rhythmic Soul
TTITLE0=Smokie - Mexican Girl
TTITLE1=Hot Chocolate - So You Win Again
TTITLE2=Donna Summer - I Feel Love
TTITLE3=Dee D. Jackson - Automatic Lover
TTITLE4=KC and The Sunshine Band - That's The Way (I Like It)
TTITLE5=Johnny Wakelin - In Zaire
TTITLE6=Albert Hammond - Everything I Want To Do
TTITLE7=Norman Greenbaum - Spirit In The Sky
TTITLE8=Nazareth - This Flight Tonight
TTITLE9=Suzie Quatro - Can The Can
TTITLE10=The Les Humphries Singers - Mama Loo
TTITLE11=Racey - Some Girls
TTITLE12=Showaddywaddy - Under The Moon Of Love
TTITLE13=Mud - Oh Boy
TTITLE14=Plastic Bertrand - Ca Plane Pour Moi
TTITLE15=Penny Mc Lean - 1-2-3-4...Fire
EXTD=YEAR: 2002
EXTT0=
EXTT1=
EXTT2=
EXTT3=
EXTT4=
EXTT5=
EXTT6=
EXTT7=
EXTT8=
EXTT9=
EXTT10=
EXTT11=
EXTT12=
EXTT13=
EXTT14=
EXTT15=
PLAYORDER=
